<!-- Generator: Gravit.io --><svg xmlns="http://www.w3.org/2000/svg" style="isolation:isolate" viewBox="212 151.434 356 362.566" width="356" height="362.566" xmlns:xlink="http://www.w3.org/1999/xlink"><circle fill="rgb(204, 0, 0)" stroke="rgba(0, 0, 0, 0)" stroke-width="1" transform="matrix(143.5 0 0 151.5 355.5 362.5)" cx="0" cy="0" r="1" vector-effect="non-scaling-stroke" /><circle fill="rgb(204, 0, 0)" stroke="rgba(0, 0, 0, 0)" stroke-width="1" transform="matrix(142.5 0 0 151.5 425.5 362.5)" cx="0" cy="0" r="1" vector-effect="non-scaling-stroke" /><path fill="rgb(0, 0, 0)" stroke="rgba(0, 0, 0, 0)" stroke-linecap="square" stroke-linejoin="miter" stroke-width="1" d="M 401.399 243 L 330.088 243 L 373.582 223.485 L 444.412 223.485 L 401.399 243 Z" /><path fill="rgb(180, 107, 16)" stroke="rgba(0, 0, 0, 0)" stroke-linecap="square" stroke-linejoin="miter" stroke-width="1" d="M 382.199 181.272 L 374.725 173.939 L 367.25 166.606 C 363.31 162.741 364.458 158.514 369.812 157.174 L 380.664 154.456 L 391.516 151.739 C 396.869 150.399 399.909 153.596 398.3 158.876 L 395.277 168.793 L 392.254 178.709 C 390.644 183.989 386.139 185.137 382.199 181.272 Z" /><rect fill="rgb(180, 107, 16)" stroke="rgba(0, 0, 0, 0)" stroke-linecap="square" stroke-linejoin="miter" stroke-width="1" transform="matrix(0.996231 -0.0867426 0.0867426 0.996231 -15.7588 34.3393)" x="377.5" y="161" width="19.5" height="75" rx="8.34598" ry="8.34598" /><rect fill="rgb(255, 255, 255)" stroke="rgba(0, 0, 0, 0)" stroke-linecap="square" stroke-linejoin="miter" stroke-width="1" transform="matrix(0.999423 -0.0339539 0.0339539 0.999423 -9.87451 15.9258)" x="449.924" y="272.829" width="28.0915" height="51.7433" rx="11.6611" ry="11.6611" /></svg>