<!-- Generator: Gravit.io --><svg xmlns="http://www.w3.org/2000/svg" style="isolation:isolate" viewBox="154 202.358 432 119.642" width="432" height="119.642" xmlns:xlink="http://www.w3.org/1999/xlink"><rect fill="rgb(76, 0, 0)" stroke="rgba(0, 0, 0, 0)" stroke-linecap="square" stroke-linejoin="miter" stroke-width="1" transform="matrix(1 0 0 1 0 0)" x="161" y="238" width="18" height="84" rx="4.31389" ry="4.31389" /><rect fill="rgb(76, 0, 0)" stroke="rgba(0, 0, 0, 0)" stroke-linecap="square" stroke-linejoin="miter" stroke-width="1" transform="matrix(1 0 0 1 0 0)" x="560" y="238" width="17.625" height="84" rx="4.27474" ry="4.27474" /><rect fill="rgb(106, 0, 0)" stroke="rgba(0, 0, 0, 0)" stroke-linecap="square" stroke-linejoin="miter" stroke-width="1" transform="matrix(1 0 0 1 0 0)" x="154" y="235" width="432" height="51" rx="18.2733" ry="18.2733" /><rect fill="rgb(215, 223, 226)" stroke="rgb(93, 93, 93)" stroke-linecap="square" stroke-linejoin="miter" stroke-width="3" transform="matrix(1 0 0 1 0 0)" x="481.5" y="203.858" width="89" height="33" rx="11.55" ry="11.55" /><rect fill="rgb(67, 88, 97)" stroke="rgba(0, 0, 0, 0)" stroke-linecap="square" stroke-linejoin="miter" stroke-width="1" transform="matrix(1 0 0 1 0 0)" x="168" y="204.611" width="313" height="31.4947" rx="10.8395" ry="10.8395" /></svg>