<!-- Generator: Gravit.io --><svg xmlns="http://www.w3.org/2000/svg" style="isolation:isolate" viewBox="66 82 671.006 434" width="671.006" height="434" xmlns:xlink="http://www.w3.org/1999/xlink"><rect fill="rgb(238, 200, 160)" stroke="rgba(0, 0, 0, 0)" stroke-linecap="square" stroke-linejoin="miter" stroke-width="1" transform="matrix(1 0 0 1 0 0)" x="67" y="82" width="669" height="434" rx="48.612" ry="48.612" /><rect fill="rgb(238, 200, 160)" stroke="rgba(0, 0, 0, 0)" stroke-linecap="square" stroke-linejoin="miter" stroke-width="1" transform="matrix(1 0 0 1 0 0)" x="68" y="460" width="55" height="56" /><rect fill="rgb(238, 200, 160)" stroke="rgba(0, 0, 0, 0)" stroke-linecap="square" stroke-linejoin="miter" stroke-width="1" transform="matrix(1 0 0 1 0 0)" x="676" y="449" width="60" height="67" /><line stroke="rgb(0, 0, 0)" stroke-linecap="square" stroke-linejoin="miter" stroke-width="2" x1="70" y1="129" x2="734" y2="129" /><line stroke="rgb(0, 0, 0)" stroke-linecap="square" stroke-linejoin="miter" stroke-width="2" x1="68" y1="160" x2="734" y2="162" /><line stroke="rgb(0, 0, 0)" stroke-linecap="square" stroke-linejoin="miter" stroke-width="2" x1="69" y1="222" x2="733" y2="225" /><line stroke="rgb(0, 0, 0)" stroke-linecap="square" stroke-linejoin="miter" stroke-width="2" x1="67" y1="292" x2="733" y2="292" /><line stroke="rgb(0, 0, 0)" stroke-linecap="square" stroke-linejoin="miter" stroke-width="2" x1="69" y1="350" x2="733" y2="354" /><line stroke="rgb(0, 0, 0)" stroke-linecap="square" stroke-linejoin="miter" stroke-width="2" x1="69" y1="416" x2="736" y2="421" /><line stroke="rgb(0, 0, 0)" stroke-linecap="square" stroke-linejoin="miter" stroke-width="2" x1="71" y1="480" x2="736" y2="479" /><line stroke="rgb(0, 0, 0)" stroke-linecap="square" stroke-linejoin="miter" stroke-width="2" x1="152" y1="133.75" x2="151" y2="478" /><line stroke="rgb(0, 0, 0)" stroke-linecap="square" stroke-linejoin="miter" stroke-width="2" x1="247" y1="131.75" x2="248" y2="479.25" /><line stroke="rgb(0, 0, 0)" stroke-linecap="square" stroke-linejoin="miter" stroke-width="2" x1="348" y1="131" x2="346" y2="478.125" /><line stroke="rgb(0, 0, 0)" stroke-linecap="square" stroke-linejoin="miter" stroke-width="2" x1="445" y1="132" x2="444" y2="480.25" /><line stroke="rgb(0, 0, 0)" stroke-linecap="square" stroke-linejoin="miter" stroke-width="2" x1="545" y1="130" x2="546" y2="478" /><line stroke="rgb(0, 0, 0)" stroke-linecap="square" stroke-linejoin="miter" stroke-width="2" x1="641" y1="132.5" x2="643" y2="478" /><path fill="rgb(0, 0, 0)" fill-rule="evenodd" stroke="rgba(0, 0, 0, 0)" stroke-linecap="square" stroke-linejoin="miter" stroke-width="1" d="M 91.6055 151.578 Q 91.6055 153.463 90.2383 154.518 Q 88.8711 155.572 86.5273 155.572 Q 83.9883 155.572 82.6211 154.918 L 82.6211 153.316 Q 83.5 153.688 84.5352 153.902 Q 85.5703 154.117 86.5859 154.117 Q 88.2461 154.117 89.0859 153.487 Q 89.9258 152.857 89.9258 151.734 Q 89.9258 150.992 89.6279 150.519 Q 89.3301 150.045 88.6318 149.645 Q 87.9336 149.244 86.5078 148.736 Q 84.5156 148.023 83.6611 147.047 Q 82.8066 146.07 82.8066 144.498 Q 82.8066 142.848 84.0469 141.871 Q 85.2871 140.895 87.3281 140.895 Q 89.457 140.895 91.2441 141.676 L 90.7266 143.121 Q 88.959 142.379 87.2891 142.379 Q 85.9707 142.379 85.2285 142.945 Q 84.4863 143.512 84.4863 144.518 Q 84.4863 145.26 84.7598 145.733 Q 85.0332 146.207 85.6826 146.603 Q 86.332 146.998 87.6699 147.477 Q 89.916 148.277 90.7607 149.195 Q 91.6055 150.113 91.6055 151.578 Z M 95.8047 144.674 L 95.8047 151.617 Q 95.8047 152.926 96.4004 153.57 Q 96.9961 154.215 98.2656 154.215 Q 99.9453 154.215 100.722 153.297 Q 101.498 152.379 101.498 150.299 L 101.498 144.674 L 103.119 144.674 L 103.119 155.377 L 101.781 155.377 L 101.547 153.941 L 101.459 153.941 Q 100.961 154.732 100.077 155.152 Q 99.1934 155.572 98.0605 155.572 Q 96.1074 155.572 95.1357 154.645 Q 94.1641 153.717 94.1641 151.676 L 94.1641 144.674 L 95.8047 144.674 Z M 113.881 155.377 L 113.881 148.453 Q 113.881 147.145 113.285 146.5 Q 112.689 145.855 111.42 145.855 Q 109.74 145.855 108.959 146.764 Q 108.178 147.672 108.178 149.762 L 108.178 155.377 L 106.557 155.377 L 106.557 144.674 L 107.875 144.674 L 108.139 146.139 L 108.217 146.139 Q 108.715 145.348 109.613 144.913 Q 110.512 144.479 111.615 144.479 Q 113.549 144.479 114.525 145.411 Q 115.502 146.344 115.502 148.395 L 115.502 155.377 L 113.881 155.377 Z" /><path fill="rgb(0, 0, 0)" fill-rule="evenodd" stroke="rgba(0, 0, 0, 0)" stroke-linecap="square" stroke-linejoin="miter" stroke-width="1" d="M 184.867 156.252 L 180.023 143.596 L 179.945 143.596 Q 180.082 145.1 180.082 147.17 L 180.082 156.252 L 178.549 156.252 L 178.549 141.975 L 181.049 141.975 L 185.57 153.752 L 185.648 153.752 L 190.209 141.975 L 192.689 141.975 L 192.689 156.252 L 191.029 156.252 L 191.029 147.053 Q 191.029 145.471 191.166 143.615 L 191.088 143.615 L 186.205 156.252 L 184.867 156.252 Z M 205.6 150.891 Q 205.6 153.508 204.281 154.978 Q 202.963 156.447 200.639 156.447 Q 199.203 156.447 198.09 155.773 Q 196.977 155.1 196.371 153.84 Q 195.766 152.58 195.766 150.891 Q 195.766 148.273 197.074 146.813 Q 198.383 145.354 200.707 145.354 Q 202.953 145.354 204.276 146.848 Q 205.6 148.342 205.6 150.891 Z M 197.445 150.891 Q 197.445 152.941 198.266 154.016 Q 199.086 155.09 200.678 155.09 Q 202.27 155.09 203.095 154.021 Q 203.92 152.951 203.92 150.891 Q 203.92 148.85 203.095 147.79 Q 202.27 146.73 200.658 146.73 Q 199.066 146.73 198.256 147.775 Q 197.445 148.82 197.445 150.891 Z M 215.766 156.252 L 215.766 149.328 Q 215.766 148.02 215.17 147.375 Q 214.574 146.73 213.305 146.73 Q 211.625 146.73 210.844 147.639 Q 210.063 148.547 210.063 150.637 L 210.063 156.252 L 208.441 156.252 L 208.441 145.549 L 209.76 145.549 L 210.023 147.014 L 210.102 147.014 Q 210.6 146.223 211.498 145.788 Q 212.396 145.354 213.5 145.354 Q 215.434 145.354 216.41 146.286 Q 217.387 147.219 217.387 149.27 L 217.387 156.252 L 215.766 156.252 Z" /><path fill="rgb(0, 0, 0)" fill-rule="evenodd" stroke="rgba(0, 0, 0, 0)" stroke-linecap="square" stroke-linejoin="miter" stroke-width="1" d="M 280.943 155.759 L 279.283 155.759 L 279.283 142.956 L 274.762 142.956 L 274.762 141.481 L 285.465 141.481 L 285.465 142.956 L 280.943 142.956 L 280.943 155.759 Z M 288.893 145.056 L 288.893 151.999 Q 288.893 153.308 289.488 153.952 Q 290.084 154.597 291.354 154.597 Q 293.033 154.597 293.81 153.679 Q 294.586 152.761 294.586 150.681 L 294.586 145.056 L 296.207 145.056 L 296.207 155.759 L 294.869 155.759 L 294.635 154.323 L 294.547 154.323 Q 294.049 155.114 293.165 155.534 Q 292.281 155.954 291.148 155.954 Q 289.195 155.954 288.224 155.026 Q 287.252 154.099 287.252 152.058 L 287.252 145.056 L 288.893 145.056 Z M 304.166 155.954 Q 301.793 155.954 300.421 154.509 Q 299.049 153.063 299.049 150.495 Q 299.049 147.907 300.323 146.384 Q 301.598 144.86 303.746 144.86 Q 305.758 144.86 306.93 146.184 Q 308.102 147.507 308.102 149.675 L 308.102 150.7 L 300.729 150.7 Q 300.777 152.585 301.681 153.562 Q 302.584 154.538 304.225 154.538 Q 305.953 154.538 307.643 153.815 L 307.643 155.261 Q 306.783 155.632 306.017 155.793 Q 305.25 155.954 304.166 155.954 Z M 303.727 146.218 Q 302.438 146.218 301.671 147.058 Q 300.904 147.897 300.768 149.382 L 306.363 149.382 Q 306.363 147.849 305.68 147.033 Q 304.996 146.218 303.727 146.218 Z M 317.77 152.839 Q 317.77 154.333 316.656 155.144 Q 315.543 155.954 313.531 155.954 Q 311.402 155.954 310.211 155.28 L 310.211 153.776 Q 310.982 154.167 311.866 154.392 Q 312.75 154.616 313.57 154.616 Q 314.84 154.616 315.523 154.211 Q 316.207 153.806 316.207 152.976 Q 316.207 152.351 315.665 151.906 Q 315.123 151.462 313.551 150.856 Q 312.057 150.3 311.427 149.885 Q 310.797 149.47 310.489 148.942 Q 310.182 148.415 310.182 147.683 Q 310.182 146.374 311.246 145.617 Q 312.311 144.86 314.166 144.86 Q 315.895 144.86 317.545 145.563 L 316.969 146.882 Q 315.357 146.218 314.049 146.218 Q 312.896 146.218 312.311 146.579 Q 311.725 146.94 311.725 147.575 Q 311.725 148.005 311.944 148.308 Q 312.164 148.61 312.652 148.884 Q 313.141 149.157 314.527 149.675 Q 316.432 150.368 317.101 151.071 Q 317.77 151.774 317.77 152.839 Z" /><path fill="rgb(0, 0, 0)" fill-rule="evenodd" stroke="rgba(0, 0, 0, 0)" stroke-linecap="square" stroke-linejoin="miter" stroke-width="1" d="M 390.924 155.502 L 389.283 155.502 L 386.402 145.941 Q 386.197 145.307 385.943 144.34 Q 385.689 143.373 385.68 143.178 Q 385.465 144.467 384.996 146 L 382.203 155.502 L 380.563 155.502 L 376.764 141.225 L 378.521 141.225 L 380.777 150.043 Q 381.246 151.898 381.461 153.402 Q 381.725 151.615 382.242 149.906 L 384.801 141.225 L 386.559 141.225 L 389.244 149.984 Q 389.713 151.498 390.035 153.402 Q 390.221 152.016 390.738 150.023 L 392.984 141.225 L 394.742 141.225 L 390.924 155.502 Z M 401.256 155.697 Q 398.883 155.697 397.511 154.252 Q 396.139 152.807 396.139 150.238 Q 396.139 147.65 397.413 146.127 Q 398.688 144.604 400.836 144.604 Q 402.848 144.604 404.02 145.927 Q 405.191 147.25 405.191 149.418 L 405.191 150.443 L 397.818 150.443 Q 397.867 152.328 398.771 153.305 Q 399.674 154.281 401.314 154.281 Q 403.043 154.281 404.732 153.559 L 404.732 155.004 Q 403.873 155.375 403.106 155.536 Q 402.34 155.697 401.256 155.697 Z M 400.816 145.961 Q 399.527 145.961 398.761 146.801 Q 397.994 147.641 397.857 149.125 L 403.453 149.125 Q 403.453 147.592 402.77 146.776 Q 402.086 145.961 400.816 145.961 Z M 415.24 154.066 L 415.152 154.066 Q 414.029 155.697 411.793 155.697 Q 409.693 155.697 408.526 154.262 Q 407.359 152.826 407.359 150.18 Q 407.359 147.533 408.531 146.068 Q 409.703 144.604 411.793 144.604 Q 413.971 144.604 415.133 146.186 L 415.26 146.186 L 415.191 145.414 L 415.152 144.662 L 415.152 140.307 L 416.773 140.307 L 416.773 155.502 L 415.455 155.502 L 415.24 154.066 Z M 411.998 154.34 Q 413.658 154.34 414.405 153.437 Q 415.152 152.533 415.152 150.521 L 415.152 150.18 Q 415.152 147.904 414.396 146.933 Q 413.639 145.961 411.979 145.961 Q 410.553 145.961 409.796 147.069 Q 409.039 148.178 409.039 150.199 Q 409.039 152.25 409.791 153.295 Q 410.543 154.34 411.998 154.34 Z" /><path fill="rgb(0, 0, 0)" fill-rule="evenodd" stroke="rgba(0, 0, 0, 0)" stroke-linecap="square" stroke-linejoin="miter" stroke-width="1" d="M 470.357 156.377 L 468.697 156.377 L 468.697 143.574 L 464.176 143.574 L 464.176 142.1 L 474.879 142.1 L 474.879 143.574 L 470.357 143.574 L 470.357 156.377 Z M 484.107 156.377 L 484.107 149.453 Q 484.107 148.145 483.512 147.5 Q 482.916 146.855 481.646 146.855 Q 479.957 146.855 479.181 147.773 Q 478.404 148.691 478.404 150.781 L 478.404 156.377 L 476.783 156.377 L 476.783 141.182 L 478.404 141.182 L 478.404 145.781 Q 478.404 146.611 478.326 147.158 L 478.424 147.158 Q 478.902 146.387 479.786 145.942 Q 480.67 145.498 481.803 145.498 Q 483.766 145.498 484.747 146.431 Q 485.729 147.363 485.729 149.395 L 485.729 156.377 L 484.107 156.377 Z M 490.582 145.674 L 490.582 152.617 Q 490.582 153.926 491.178 154.57 Q 491.773 155.215 493.043 155.215 Q 494.723 155.215 495.499 154.297 Q 496.275 153.379 496.275 151.299 L 496.275 145.674 L 497.896 145.674 L 497.896 156.377 L 496.559 156.377 L 496.324 154.941 L 496.236 154.941 Q 495.738 155.732 494.854 156.152 Q 493.971 156.572 492.838 156.572 Q 490.885 156.572 489.913 155.645 Q 488.941 154.717 488.941 152.676 L 488.941 145.674 L 490.582 145.674 Z M 506.217 145.479 Q 506.93 145.479 507.496 145.596 L 507.271 147.1 Q 506.607 146.953 506.1 146.953 Q 504.801 146.953 503.878 148.008 Q 502.955 149.063 502.955 150.635 L 502.955 156.377 L 501.334 156.377 L 501.334 145.674 L 502.672 145.674 L 502.857 147.656 L 502.936 147.656 Q 503.531 146.611 504.371 146.045 Q 505.211 145.479 506.217 145.479 Z M 516.402 153.457 Q 516.402 154.951 515.289 155.762 Q 514.176 156.572 512.164 156.572 Q 510.035 156.572 508.844 155.898 L 508.844 154.395 Q 509.615 154.785 510.499 155.01 Q 511.383 155.234 512.203 155.234 Q 513.473 155.234 514.156 154.829 Q 514.84 154.424 514.84 153.594 Q 514.84 152.969 514.298 152.524 Q 513.756 152.08 512.184 151.475 Q 510.689 150.918 510.06 150.503 Q 509.43 150.088 509.122 149.561 Q 508.814 149.033 508.814 148.301 Q 508.814 146.992 509.879 146.235 Q 510.943 145.479 512.799 145.479 Q 514.527 145.479 516.178 146.182 L 515.602 147.5 Q 513.99 146.836 512.682 146.836 Q 511.529 146.836 510.943 147.197 Q 510.357 147.559 510.357 148.193 Q 510.357 148.623 510.577 148.926 Q 510.797 149.229 511.285 149.502 Q 511.773 149.775 513.16 150.293 Q 515.064 150.986 515.733 151.689 Q 516.402 152.393 516.402 153.457 Z" /><path fill="rgb(0, 0, 0)" fill-rule="evenodd" stroke="rgba(0, 0, 0, 0)" stroke-linecap="square" stroke-linejoin="miter" stroke-width="1" d="M 580.623 156.377 L 578.963 156.377 L 578.963 142.1 L 586.922 142.1 L 586.922 143.574 L 580.623 143.574 L 580.623 148.799 L 586.541 148.799 L 586.541 150.273 L 580.623 150.273 L 580.623 156.377 Z M 593.924 145.479 Q 594.637 145.479 595.203 145.596 L 594.979 147.1 Q 594.314 146.953 593.807 146.953 Q 592.508 146.953 591.585 148.008 Q 590.662 149.063 590.662 150.635 L 590.662 156.377 L 589.041 156.377 L 589.041 145.674 L 590.379 145.674 L 590.564 147.656 L 590.643 147.656 Q 591.238 146.611 592.078 146.045 Q 592.918 145.479 593.924 145.479 Z M 598.826 156.377 L 597.205 156.377 L 597.205 145.674 L 598.826 145.674 L 598.826 156.377 Z M 597.068 142.773 Q 597.068 142.217 597.342 141.958 Q 597.615 141.699 598.025 141.699 Q 598.416 141.699 598.699 141.963 Q 598.982 142.227 598.982 142.773 Q 598.982 143.32 598.699 143.589 Q 598.416 143.857 598.025 143.857 Q 597.615 143.857 597.342 143.589 Q 597.068 143.32 597.068 142.773 Z" /><path fill="rgb(0, 0, 0)" fill-rule="evenodd" stroke="rgba(0, 0, 0, 0)" stroke-linecap="square" stroke-linejoin="miter" stroke-width="1" d="M 678.02 151.703 Q 678.02 153.588 676.652 154.643 Q 675.285 155.697 672.941 155.697 Q 670.402 155.697 669.035 155.043 L 669.035 153.441 Q 669.914 153.813 670.949 154.027 Q 671.984 154.242 673 154.242 Q 674.66 154.242 675.5 153.612 Q 676.34 152.982 676.34 151.859 Q 676.34 151.117 676.042 150.644 Q 675.744 150.17 675.046 149.77 Q 674.348 149.369 672.922 148.861 Q 670.93 148.148 670.075 147.172 Q 669.221 146.195 669.221 144.623 Q 669.221 142.973 670.461 141.996 Q 671.701 141.02 673.742 141.02 Q 675.871 141.02 677.658 141.801 L 677.141 143.246 Q 675.373 142.504 673.703 142.504 Q 672.385 142.504 671.643 143.07 Q 670.9 143.637 670.9 144.643 Q 670.9 145.385 671.174 145.858 Q 671.447 146.332 672.097 146.728 Q 672.746 147.123 674.084 147.602 Q 676.33 148.402 677.175 149.32 Q 678.02 150.238 678.02 151.703 Z M 687.277 155.502 L 686.955 153.979 L 686.877 153.979 Q 686.076 154.984 685.28 155.341 Q 684.484 155.697 683.293 155.697 Q 681.701 155.697 680.798 154.877 Q 679.895 154.057 679.895 152.543 Q 679.895 149.301 685.08 149.145 L 686.896 149.086 L 686.896 148.422 Q 686.896 147.162 686.354 146.562 Q 685.813 145.961 684.621 145.961 Q 683.283 145.961 681.594 146.781 L 681.096 145.541 Q 681.887 145.111 682.829 144.867 Q 683.771 144.623 684.719 144.623 Q 686.633 144.623 687.556 145.473 Q 688.479 146.322 688.479 148.197 L 688.479 155.502 L 687.277 155.502 Z M 683.615 154.359 Q 685.129 154.359 685.993 153.529 Q 686.857 152.699 686.857 151.205 L 686.857 150.238 L 685.236 150.307 Q 683.303 150.375 682.448 150.907 Q 681.594 151.439 681.594 152.563 Q 681.594 153.441 682.126 153.9 Q 682.658 154.359 683.615 154.359 Z M 695.275 154.359 Q 695.705 154.359 696.105 154.296 Q 696.506 154.232 696.74 154.164 L 696.74 155.404 Q 696.477 155.531 695.964 155.614 Q 695.451 155.697 695.041 155.697 Q 691.936 155.697 691.936 152.426 L 691.936 146.059 L 690.402 146.059 L 690.402 145.277 L 691.936 144.604 L 692.619 142.318 L 693.557 142.318 L 693.557 144.799 L 696.662 144.799 L 696.662 146.059 L 693.557 146.059 L 693.557 152.357 Q 693.557 153.324 694.016 153.842 Q 694.475 154.359 695.275 154.359 Z" /><path fill="rgb(0, 0, 0)" fill-rule="evenodd" stroke="rgba(0, 0, 0, 0)" stroke-linecap="square" stroke-linejoin="miter" stroke-width="1" d="M 111.199 108.627 Q 111.199 113.046 108.801 115.384 Q 106.402 117.721 101.897 117.721 L 96.9536 117.721 L 96.9536 99.8745 L 102.422 99.8745 Q 106.585 99.8745 108.892 102.182 Q 111.199 104.489 111.199 108.627 Z M 109.002 108.7 Q 109.002 105.209 107.25 103.439 Q 105.499 101.669 102.044 101.669 L 99.0288 101.669 L 99.0288 115.927 L 101.556 115.927 Q 105.267 115.927 107.134 114.102 Q 109.002 112.277 109.002 108.7 Z M 120.525 117.965 Q 117.559 117.965 115.844 116.159 Q 114.129 114.352 114.129 111.142 Q 114.129 107.907 115.722 106.002 Q 117.315 104.098 120 104.098 Q 122.515 104.098 123.98 105.752 Q 125.445 107.406 125.445 110.116 L 125.445 111.398 L 116.229 111.398 Q 116.29 113.754 117.419 114.975 Q 118.548 116.195 120.599 116.195 Q 122.759 116.195 124.871 115.292 L 124.871 117.099 Q 123.797 117.563 122.839 117.764 Q 121.88 117.965 120.525 117.965 Z M 119.976 105.795 Q 118.365 105.795 117.406 106.845 Q 116.448 107.895 116.277 109.75 L 123.272 109.75 Q 123.272 107.833 122.417 106.814 Q 121.563 105.795 119.976 105.795 Z M 134.246 117.965 Q 131.341 117.965 129.748 116.177 Q 128.155 114.389 128.155 111.117 Q 128.155 107.76 129.772 105.929 Q 131.39 104.098 134.38 104.098 Q 135.345 104.098 136.309 104.306 Q 137.273 104.513 137.823 104.794 L 137.2 106.515 Q 136.529 106.247 135.735 106.07 Q 134.942 105.893 134.332 105.893 Q 130.254 105.893 130.254 111.093 Q 130.254 113.559 131.249 114.877 Q 132.244 116.195 134.197 116.195 Q 135.87 116.195 137.627 115.475 L 137.627 117.27 Q 136.285 117.965 134.246 117.965 Z M 146.453 117.965 Q 143.487 117.965 141.772 116.159 Q 140.057 114.352 140.057 111.142 Q 140.057 107.907 141.65 106.002 Q 143.243 104.098 145.928 104.098 Q 148.443 104.098 149.908 105.752 Q 151.373 107.406 151.373 110.116 L 151.373 111.398 L 142.156 111.398 Q 142.217 113.754 143.346 114.975 Q 144.476 116.195 146.526 116.195 Q 148.687 116.195 150.799 115.292 L 150.799 117.099 Q 149.725 117.563 148.766 117.764 Q 147.808 117.965 146.453 117.965 Z M 145.904 105.795 Q 144.292 105.795 143.334 106.845 Q 142.376 107.895 142.205 109.75 L 149.2 109.75 Q 149.2 107.833 148.345 106.814 Q 147.491 105.795 145.904 105.795 Z M 171.88 117.721 L 171.88 109.018 Q 171.88 107.418 171.197 106.619 Q 170.513 105.819 169.073 105.819 Q 167.181 105.819 166.277 106.906 Q 165.374 107.992 165.374 110.25 L 165.374 117.721 L 163.348 117.721 L 163.348 109.018 Q 163.348 107.418 162.664 106.619 Q 161.98 105.819 160.528 105.819 Q 158.624 105.819 157.739 106.961 Q 156.854 108.102 156.854 110.702 L 156.854 117.721 L 154.827 117.721 L 154.827 104.342 L 156.475 104.342 L 156.805 106.173 L 156.902 106.173 Q 157.476 105.197 158.52 104.647 Q 159.563 104.098 160.857 104.098 Q 163.995 104.098 164.959 106.369 L 165.057 106.369 Q 165.655 105.319 166.79 104.708 Q 167.925 104.098 169.378 104.098 Q 171.648 104.098 172.778 105.264 Q 173.907 106.43 173.907 108.993 L 173.907 117.721 L 171.88 117.721 Z M 184.307 104.123 Q 186.944 104.123 188.403 105.923 Q 189.861 107.724 189.861 111.02 Q 189.861 114.315 188.39 116.14 Q 186.919 117.965 184.307 117.965 Q 183.001 117.965 181.921 117.483 Q 180.84 117.001 180.108 116 L 179.961 116 L 179.534 117.721 L 178.082 117.721 L 178.082 98.7271 L 180.108 98.7271 L 180.108 103.341 Q 180.108 104.892 180.01 106.125 L 180.108 106.125 Q 181.524 104.123 184.307 104.123 Z M 184.014 105.819 Q 181.939 105.819 181.023 107.01 Q 180.108 108.2 180.108 111.02 Q 180.108 113.839 181.048 115.054 Q 181.988 116.269 184.063 116.269 Q 185.931 116.269 186.846 114.907 Q 187.762 113.546 187.762 110.995 Q 187.762 108.383 186.846 107.101 Q 185.931 105.819 184.014 105.819 Z M 199.053 117.965 Q 196.087 117.965 194.372 116.159 Q 192.657 114.352 192.657 111.142 Q 192.657 107.907 194.25 106.002 Q 195.843 104.098 198.528 104.098 Q 201.043 104.098 202.508 105.752 Q 203.973 107.406 203.973 110.116 L 203.973 111.398 L 194.756 111.398 Q 194.817 113.754 195.947 114.975 Q 197.076 116.195 199.126 116.195 Q 201.287 116.195 203.399 115.292 L 203.399 117.099 Q 202.325 117.563 201.366 117.764 Q 200.408 117.965 199.053 117.965 Z M 198.504 105.795 Q 196.893 105.795 195.934 106.845 Q 194.976 107.895 194.805 109.75 L 201.8 109.75 Q 201.8 107.833 200.945 106.814 Q 200.091 105.795 198.504 105.795 Z M 213.531 104.098 Q 214.422 104.098 215.13 104.245 L 214.849 106.125 Q 214.019 105.941 213.384 105.941 Q 211.761 105.941 210.607 107.26 Q 209.454 108.578 209.454 110.543 L 209.454 117.721 L 207.427 117.721 L 207.427 104.342 L 209.1 104.342 L 209.332 106.82 L 209.429 106.82 Q 210.174 105.514 211.224 104.806 Q 212.273 104.098 213.531 104.098 Z M 247.918 117.721 L 236.187 117.721 L 236.187 115.976 L 240.887 111.251 Q 243.035 109.079 243.719 108.151 Q 244.402 107.223 244.744 106.344 Q 245.086 105.465 245.086 104.452 Q 245.086 103.024 244.219 102.188 Q 243.353 101.352 241.814 101.352 Q 240.704 101.352 239.709 101.718 Q 238.714 102.084 237.493 103.048 L 236.419 101.669 Q 238.885 99.6182 241.79 99.6182 Q 244.305 99.6182 245.733 100.906 Q 247.161 102.194 247.161 104.367 Q 247.161 106.063 246.209 107.724 Q 245.257 109.384 242.645 111.923 L 238.738 115.744 L 238.738 115.841 L 247.918 115.841 L 247.918 117.721 Z M 262.31 108.773 Q 262.31 113.4 260.851 115.683 Q 259.393 117.965 256.39 117.965 Q 253.509 117.965 252.007 115.628 Q 250.506 113.29 250.506 108.773 Q 250.506 104.11 251.958 101.852 Q 253.411 99.5938 256.39 99.5938 Q 259.295 99.5938 260.802 101.95 Q 262.31 104.306 262.31 108.773 Z M 252.557 108.773 Q 252.557 112.667 253.472 114.444 Q 254.388 116.22 256.39 116.22 Q 258.416 116.22 259.325 114.419 Q 260.235 112.619 260.235 108.773 Q 260.235 104.928 259.325 103.14 Q 258.416 101.352 256.39 101.352 Q 254.388 101.352 253.472 103.115 Q 252.557 104.879 252.557 108.773 Z M 272.283 117.721 L 270.306 117.721 L 270.306 105.001 Q 270.306 103.415 270.403 101.999 Q 270.147 102.255 269.83 102.536 Q 269.512 102.816 266.924 104.916 L 265.85 103.524 L 270.574 99.8745 L 272.283 99.8745 L 272.283 117.721 Z M 279.278 110.092 Q 279.278 104.831 281.323 102.224 Q 283.367 99.6182 287.371 99.6182 Q 288.75 99.6182 289.544 99.8501 L 289.544 101.596 Q 288.604 101.291 287.396 101.291 Q 284.527 101.291 283.013 103.079 Q 281.5 104.867 281.353 108.7 L 281.5 108.7 Q 282.842 106.601 285.748 106.601 Q 288.152 106.601 289.538 108.053 Q 290.923 109.506 290.923 111.996 Q 290.923 114.779 289.404 116.372 Q 287.884 117.965 285.296 117.965 Q 282.525 117.965 280.901 115.884 Q 279.278 113.803 279.278 110.092 Z M 285.271 116.244 Q 287.005 116.244 287.963 115.152 Q 288.921 114.059 288.921 111.996 Q 288.921 110.226 288.03 109.213 Q 287.139 108.2 285.369 108.2 Q 284.271 108.2 283.355 108.651 Q 282.439 109.103 281.896 109.896 Q 281.353 110.69 281.353 111.544 Q 281.353 112.802 281.841 113.888 Q 282.33 114.975 283.227 115.609 Q 284.124 116.244 285.271 116.244 Z" /><rect fill="rgb(86, 113, 125)" stroke="rgba(0, 0, 0, 0)" stroke-linecap="square" stroke-linejoin="miter" stroke-width="1" transform="matrix(1 0 0 1 0 0)" x="161" y="209" width="76" height="6" /><rect fill="rgb(255, 64, 255)" stroke="rgba(0, 0, 0, 0)" stroke-linecap="square" stroke-linejoin="miter" stroke-width="1" transform="matrix(1 0 0 1 0 0)" x="357.5" y="209" width="76.5" height="6" /><rect fill="rgb(28, 151, 28)" stroke="rgba(0, 0, 0, 0)" stroke-linecap="square" stroke-linejoin="miter" stroke-width="1" transform="matrix(1 0 0 1 0 0)" x="76" y="277" width="68" height="7" /><rect fill="rgb(86, 113, 125)" stroke="rgba(0, 0, 0, 0)" stroke-linecap="square" stroke-linejoin="miter" stroke-width="1" transform="matrix(1 0 0 1 0 0)" x="458" y="337" width="79" height="7" /></svg>