<!-- Generator: Gravit.io --><svg xmlns="http://www.w3.org/2000/svg" style="isolation:isolate" viewBox="363 104.75 82 184.746" width="82" height="184.746" xmlns:xlink="http://www.w3.org/1999/xlink"><rect fill="rgb(255, 204, 128)" stroke="rgba(0, 0, 0, 0)" stroke-linecap="square" stroke-linejoin="miter" stroke-width="1" transform="matrix(1 0 0 1 0 0)" x="363" y="114" width="75" height="85" rx="30.7315" ry="30.7315" /><circle fill="rgb(23, 23, 23)" stroke="rgba(0, 0, 0, 0)" stroke-width="1" transform="matrix(4.5 0 0 5.25 414.5 151.25)" cx="0" cy="0" r="1" vector-effect="non-scaling-stroke" /><rect fill="rgb(0, 0, 0)" stroke="rgba(0, 0, 0, 0)" stroke-linecap="square" stroke-linejoin="miter" stroke-width="1" transform="matrix(0.999672 0.0255937 -0.0255937 0.999672 6.76721 -9.98564)" x="385.861" y="236.047" width="15.2383" height="46.6528" rx="4.16568" ry="4.16568" /><circle fill="rgb(23, 23, 23)" stroke="rgba(0, 0, 0, 0)" stroke-width="1" transform="matrix(4.5 0 0 5.25 384.5 151.25)" cx="0" cy="0" r="1" vector-effect="non-scaling-stroke" /><rect fill="rgb(106, 64, 2)" stroke="rgba(0, 0, 0, 0)" stroke-linecap="square" stroke-linejoin="miter" stroke-width="1" transform="matrix(0.999951 0.00993189 -0.00993189 0.999951 1.82316 -3.8853)" x="364.314" y="171.799" width="55.5644" height="19.6407" rx="7.85573" ry="7.85573" /><rect fill="rgb(0, 0, 0)" stroke="rgba(0, 0, 0, 0)" stroke-linecap="square" stroke-linejoin="miter" stroke-width="1" transform="matrix(1 0 0 1 0 0)" x="411.625" y="223.774" width="14.75" height="59.1129" rx="3.835" ry="3.835" /><rect fill="rgb(179, 0, 0)" stroke="rgba(0, 0, 0, 0)" stroke-linecap="square" stroke-linejoin="miter" stroke-width="1" transform="matrix(1 0 0 1 0 0)" x="380" y="191.637" width="51" height="55.3629" rx="8.925" ry="8.925" /><circle fill="rgb(106, 64, 2)" stroke="rgba(0, 0, 0, 0)" stroke-width="1" transform="matrix(9.6832 0 0 11.9349 394.183 199)" cx="0" cy="0" r="1" vector-effect="non-scaling-stroke" /><circle fill="rgb(106, 64, 2)" stroke="rgba(0, 0, 0, 0)" stroke-width="1" transform="matrix(9.72032 3.27532 -5.6711 16.8304 410 193.786)" cx="0" cy="0" r="1" vector-effect="non-scaling-stroke" /><rect fill="rgb(106, 64, 2)" stroke="rgba(0, 0, 0, 0)" stroke-linecap="square" stroke-linejoin="miter" stroke-width="1" transform="matrix(1 0 0 1 0 0)" x="367.904" y="116.75" width="58.2538" height="13" rx="3.6436" ry="3.6436" /><rect fill="rgb(106, 64, 2)" stroke="rgba(0, 0, 0, 0)" stroke-linecap="square" stroke-linejoin="miter" stroke-width="1" transform="matrix(1 0 0 1 0 0)" x="384.5" y="104.75" width="47.2302" height="15.25" rx="3.35932" ry="3.35932" /><rect fill="rgb(106, 64, 2)" stroke="rgba(0, 0, 0, 0)" stroke-linecap="square" stroke-linejoin="miter" stroke-width="1" transform="matrix(1 0 0 1 0 0)" x="374.839" y="110.75" width="53.5" height="18.5" rx="4.00128" ry="4.00128" /><rect fill="rgb(81, 62, 35)" stroke="rgba(0, 0, 0, 0)" stroke-linecap="square" stroke-linejoin="miter" stroke-width="1" transform="matrix(1 0 0 1 0 0)" x="374.839" y="276.278" width="25.6612" height="13.2181" rx="4.03153" ry="4.03153" /><rect fill="rgb(62, 41, 10)" stroke="rgba(0, 0, 0, 0)" stroke-linecap="square" stroke-linejoin="miter" stroke-width="1" transform="matrix(-1 0 0 -1 846.115 564.879)" x="408.115" y="275.383" width="29.8849" height="14.1129" rx="3.68971" ry="3.68971" /><rect fill="rgb(179, 0, 0)" fill-opacity="0.79" stroke="rgba(0, 0, 0, 0)" stroke-linecap="square" stroke-linejoin="miter" stroke-width="1" transform="matrix(0.999997 0.00254464 -0.00254464 0.999997 0.566382 -1.11502)" x="431.987" y="197.048" width="12.9601" height="49.9459" rx="4.0534" ry="4.0534" /><circle fill="rgb(106, 64, 2)" stroke="rgba(0, 0, 0, 0)" stroke-width="1" transform="matrix(10.2386 -5.55898 6.44153 11.8641 380 192.13)" cx="0" cy="0" r="1" vector-effect="non-scaling-stroke" /><rect fill="rgb(179, 0, 0)" fill-opacity="0.79" stroke="rgba(0, 0, 0, 0)" stroke-linecap="square" stroke-linejoin="miter" stroke-width="1" transform="matrix(0.99991 0.0134009 -0.0134009 0.99991 3.05209 -5.00295)" x="368.903" y="203.518" width="11.8725" height="43.4457" rx="3.13865" ry="3.13865" /><rect fill="rgb(106, 64, 2)" stroke="rgba(0, 0, 0, 0)" stroke-linecap="square" stroke-linejoin="miter" stroke-width="1" transform="matrix(0.897928 -0.440142 0.440142 0.897928 -12.8001 203.305)" x="423.07" y="114.893" width="17.7264" height="28.7136" rx="7.08454" ry="7.08454" /><rect fill="rgb(106, 64, 2)" stroke="rgba(0, 0, 0, 0)" stroke-linecap="square" stroke-linejoin="miter" stroke-width="1" transform="matrix(1 0 0 1 0 0)" x="429" y="133.95" width="16" height="37.6513" rx="6.63856" ry="6.63856" /><rect fill="rgba(0, 0, 0, 0)" stroke="rgb(52, 94, 162)" stroke-linecap="square" stroke-linejoin="miter" stroke-width="3" transform="matrix(1 0 0 1 0 0)" x="371.991" y="143.648" width="22.1921" height="17.1294" /><path fill="rgb(204, 163, 102)" stroke="rgb(102, 82, 51)" stroke-linecap="square" stroke-linejoin="miter" stroke-width="2" d="M 399.83 171.601 L 400.097 160.931 L 400.5 149.954 L 393.515 160.165 L 386.329 170.476 L 393.046 170.935 L 399.83 171.601 Z" /><rect fill="rgba(0, 0, 0, 0)" stroke="rgb(52, 94, 162)" stroke-linecap="square" stroke-linejoin="miter" stroke-width="3" transform="matrix(1 0 0 1 0 0)" x="401.589" y="143.648" width="24.569" height="17.1294" /><rect fill="rgb(106, 64, 2)" stroke="rgba(0, 0, 0, 0)" stroke-linecap="square" stroke-linejoin="miter" stroke-width="3" transform="matrix(0.999526 -0.030798 0.030798 0.999526 -4.01698 11.8005)" x="370.06" y="133.073" width="22" height="6.45339" rx="1.91147" ry="1.91147" /><rect fill="rgb(106, 64, 2)" stroke="rgba(0, 0, 0, 0)" stroke-linecap="square" stroke-linejoin="miter" stroke-width="3" transform="matrix(1 0 0 1 0 0)" x="400.316" y="133.213" width="25.8422" height="6.17276" rx="2.10614" ry="2.10614" /></svg>