<?xml version="1.0" encoding="UTF-8" standalone="no"?>
<!-- Generator: Gravit.io -->

<svg
   xmlns:dc="http://purl.org/dc/elements/1.1/"
   xmlns:cc="http://creativecommons.org/ns#"
   xmlns:rdf="http://www.w3.org/1999/02/22-rdf-syntax-ns#"
   xmlns:svg="http://www.w3.org/2000/svg"
   xmlns="http://www.w3.org/2000/svg"
   xmlns:sodipodi="http://sodipodi.sourceforge.net/DTD/sodipodi-0.dtd"
   xmlns:inkscape="http://www.inkscape.org/namespaces/inkscape"
   style="isolation:isolate"
   viewBox="25.8481 31.0907 609 423.088"
   width="609"
   height="423.088"
   id="svg2"
   version="1.1"
   inkscape:version="0.91 r13725"
   sodipodi:docname="pie-info.svg">
  <metadata
     id="metadata32">
    <rdf:RDF>
      <cc:Work
         rdf:about="">
        <dc:format>image/svg+xml</dc:format>
        <dc:type
           rdf:resource="http://purl.org/dc/dcmitype/StillImage" />
      </cc:Work>
    </rdf:RDF>
  </metadata>
  <defs
     id="defs30" />
  <sodipodi:namedview
     pagecolor="#ffffff"
     bordercolor="#666666"
     borderopacity="1"
     objecttolerance="10"
     gridtolerance="10"
     guidetolerance="10"
     inkscape:pageopacity="0"
     inkscape:pageshadow="2"
     inkscape:window-width="2560"
     inkscape:window-height="1027"
     id="namedview28"
     showgrid="false"
     inkscape:zoom="0.55780356"
     inkscape:cx="36.4845"
     inkscape:cy="211.54401"
     inkscape:window-x="-8"
     inkscape:window-y="-8"
     inkscape:window-maximized="1"
     inkscape:current-layer="svg2" />
  <path
     fill="rgb(255, 255, 255)"
     fill-rule="evenodd"
     stroke="rgba(0, 0, 0, 0)"
     stroke-linecap="square"
     stroke-linejoin="miter"
     stroke-width="1"
     d="M 42.8668 179.129 Q 40.6696 179.129 39.0949 178.419 Q 37.5202 177.708 36.5168 176.368 Q 35.5133 175.028 35.0446 173.116 Q 34.5758 171.205 34.5758 168.802 Q 34.5758 166.4 35.0666 164.481 Q 35.5573 162.562 36.5753 161.229 Q 37.5934 159.896 39.1608 159.186 Q 40.7282 158.475 42.8668 158.475 Q 45.1081 158.475 46.6608 159.142 Q 48.2135 159.808 49.1876 161.097 Q 50.1618 162.386 50.6012 164.254 Q 51.0407 166.122 51.0407 168.524 Q 51.0407 170.941 50.5719 172.896 Q 50.1032 174.852 49.1071 176.236 Q 48.111 177.621 46.5656 178.375 Q 45.0202 179.129 42.8668 179.129 Z M 42.8668 176.566 Q 44.2584 176.566 45.1886 175.98 Q 46.1188 175.394 46.6828 174.332 Q 47.2467 173.27 47.4884 171.791 Q 47.7301 170.311 47.7301 168.524 Q 47.7301 166.605 47.4884 165.191 Q 47.2467 163.778 46.6828 162.848 Q 46.1188 161.917 45.1886 161.463 Q 44.2584 161.009 42.8668 161.009 Q 41.4752 161.009 40.5158 161.529 Q 39.5563 162.049 38.9704 163.053 Q 38.3844 164.056 38.1281 165.506 Q 37.8717 166.957 37.8717 168.802 Q 37.8717 170.648 38.1281 172.098 Q 38.3844 173.548 38.9704 174.537 Q 39.5563 175.526 40.5158 176.046 Q 41.4752 176.566 42.8668 176.566 Z M 52.6667 163.778 L 55.8161 163.778 L 59.1413 175.658 L 59.5221 177.298 L 59.8883 175.658 L 63.111 163.778 L 66.2165 163.778 L 61.7633 178.749 L 57.1637 178.749 L 52.6667 163.778 Z M 67.7545 171.41 Q 67.7545 169.3 68.2672 167.777 Q 68.7799 166.253 69.7028 165.272 Q 70.6256 164.291 71.9074 163.829 Q 73.1891 163.368 74.7272 163.368 Q 76.1481 163.368 77.2687 163.844 Q 78.3893 164.32 79.1657 165.184 Q 79.942 166.048 80.3522 167.249 Q 80.7624 168.451 80.7624 169.901 Q 80.7624 170.399 80.7184 170.824 Q 80.6745 171.249 80.6159 171.556 Q 80.5573 171.922 80.484 172.215 L 70.8747 172.171 Q 70.8893 173.475 71.153 174.332 Q 71.4167 175.189 71.9367 175.687 Q 72.4567 176.185 73.2477 176.383 Q 74.0387 176.581 75.1227 176.581 Q 76.0456 176.581 76.778 176.463 Q 77.5104 176.346 78.0231 176.185 Q 78.609 176.009 79.0778 175.775 Q 79.2975 176.288 79.422 176.727 Q 79.5465 177.166 79.6051 177.489 Q 79.6637 177.87 79.693 178.163 Q 79.2096 178.412 78.5211 178.602 Q 77.9352 178.763 77.0856 178.902 Q 76.236 179.041 75.1227 179.041 Q 73.3649 179.041 71.9953 178.646 Q 70.6256 178.25 69.6808 177.35 Q 68.736 176.449 68.2453 174.991 Q 67.7545 173.534 67.7545 171.41 Z M 77.6276 170.033 L 77.6276 169.535 Q 77.6276 168.612 77.4005 167.901 Q 77.1735 167.191 76.778 166.708 Q 76.3825 166.224 75.8405 165.975 Q 75.2985 165.726 74.6686 165.726 Q 73.7458 165.726 73.0426 165.968 Q 72.3395 166.209 71.8634 166.729 Q 71.3874 167.249 71.153 168.07 Q 70.9186 168.89 70.9186 170.033 L 77.6276 170.033 Z M 85.7721 163.617 L 87.2809 165.199 Q 87.442 164.833 87.6984 164.503 Q 87.9547 164.173 88.299 163.924 Q 88.6432 163.675 89.0753 163.529 Q 89.5075 163.382 90.0202 163.382 Q 90.445 163.382 90.8405 163.448 Q 91.236 163.514 91.7047 163.675 Q 91.7194 163.705 91.7414 163.91 Q 91.7633 164.115 91.7633 164.422 Q 91.7633 164.657 91.734 164.972 Q 91.7047 165.287 91.6388 165.616 Q 91.5729 165.946 91.4484 166.268 Q 91.3239 166.59 91.1335 166.825 L 90.8551 166.898 Q 90.5622 166.751 90.2033 166.649 Q 89.8444 166.546 89.4635 166.546 Q 88.8776 166.546 88.4821 166.627 Q 88.0866 166.708 87.8376 166.795 Q 87.5446 166.898 87.3688 167.03 L 87.3688 178.749 L 84.234 178.749 L 84.234 166.458 L 83.0768 165.272 L 83.0768 163.617 L 85.7721 163.617 Z M 92.5983 163.778 L 95.7477 163.778 L 99.0729 175.658 L 99.4538 177.298 L 99.82 175.658 L 103.043 163.778 L 106.148 163.778 L 101.695 178.749 L 97.0954 178.749 L 92.5983 163.778 Z M 110.308 161.244 Q 109.898 161.244 109.539 161.097 Q 109.18 160.951 108.909 160.702 Q 108.638 160.453 108.477 160.123 Q 108.316 159.793 108.316 159.413 Q 108.316 159.017 108.477 158.68 Q 108.638 158.343 108.909 158.094 Q 109.18 157.845 109.539 157.706 Q 109.898 157.567 110.308 157.567 Q 110.718 157.567 111.085 157.706 Q 111.451 157.845 111.722 158.094 Q 111.993 158.343 112.154 158.68 Q 112.315 159.017 112.315 159.413 Q 112.315 159.793 112.154 160.123 Q 111.993 160.453 111.722 160.702 Q 111.451 160.951 111.085 161.097 Q 110.718 161.244 110.308 161.244 Z M 108.624 163.778 L 111.671 163.778 L 111.671 176.288 L 112.535 176.903 L 112.535 178.749 L 111.7 178.749 L 111.671 178.719 L 111.671 178.749 Q 110.22 178.749 109.422 178.163 Q 108.624 177.577 108.624 176.229 L 108.624 163.778 Z M 115.318 171.41 Q 115.318 169.3 115.831 167.777 Q 116.343 166.253 117.266 165.272 Q 118.189 164.291 119.471 163.829 Q 120.753 163.368 122.291 163.368 Q 123.712 163.368 124.832 163.844 Q 125.953 164.32 126.729 165.184 Q 127.506 166.048 127.916 167.249 Q 128.326 168.451 128.326 169.901 Q 128.326 170.399 128.282 170.824 Q 128.238 171.249 128.179 171.556 Q 128.121 171.922 128.048 172.215 L 118.438 172.171 Q 118.453 173.475 118.716 174.332 Q 118.98 175.189 119.5 175.687 Q 120.02 176.185 120.811 176.383 Q 121.602 176.581 122.686 176.581 Q 123.609 176.581 124.341 176.463 Q 125.074 176.346 125.587 176.185 Q 126.173 176.009 126.641 175.775 Q 126.861 176.288 126.986 176.727 Q 127.11 177.166 127.169 177.489 Q 127.227 177.87 127.257 178.163 Q 126.773 178.412 126.085 178.602 Q 125.499 178.763 124.649 178.902 Q 123.799 179.041 122.686 179.041 Q 120.928 179.041 119.559 178.646 Q 118.189 178.25 117.244 177.35 Q 116.299 176.449 115.809 174.991 Q 115.318 173.534 115.318 171.41 Z M 125.191 170.033 L 125.191 169.535 Q 125.191 168.612 124.964 167.901 Q 124.737 167.191 124.341 166.708 Q 123.946 166.224 123.404 165.975 Q 122.862 165.726 122.232 165.726 Q 121.309 165.726 120.606 165.968 Q 119.903 166.209 119.427 166.729 Q 118.951 167.249 118.716 168.07 Q 118.482 168.89 118.482 170.033 L 125.191 170.033 Z M 129.717 163.778 L 132.867 163.778 L 135.621 175.335 L 135.958 177.21 L 136.251 175.35 L 138.799 163.778 L 142.769 163.778 L 145.45 175.335 L 145.801 177.21 L 146.124 175.335 L 148.731 163.778 L 151.778 163.778 L 147.999 178.749 L 143.531 178.749 L 141.129 168.055 L 140.733 165.887 L 140.367 168.055 L 138.184 178.749 L 133.629 178.749 L 129.717 163.778 Z"
     id="path4" />
  <path
     fill="rgb(255, 255, 255)"
     fill-rule="evenodd"
     stroke="rgba(0, 0, 0, 0)"
     stroke-linecap="square"
     stroke-linejoin="miter"
     stroke-width="1"
     d="M 34.9274 238.637 Q 34.9567 238.3 35.0299 237.875 Q 35.1032 237.524 35.2277 237.033 Q 35.3522 236.542 35.6012 235.971 Q 36.3922 236.234 37.2126 236.44 Q 37.9157 236.615 38.7506 236.762 Q 39.5856 236.908 40.3473 236.908 Q 41.5045 236.908 42.2882 236.733 Q 43.0719 236.557 43.548 236.212 Q 44.0241 235.868 44.2292 235.348 Q 44.4342 234.828 44.4342 234.14 Q 44.4342 233.363 44.2218 232.821 Q 44.0094 232.279 43.5773 231.884 Q 43.1452 231.488 42.4713 231.21 Q 41.7975 230.932 40.8747 230.668 Q 39.2633 230.229 38.1501 229.709 Q 37.0368 229.189 36.341 228.515 Q 35.6452 227.841 35.3376 226.984 Q 35.0299 226.127 35.0299 225.028 Q 35.0299 223.446 35.5207 222.318 Q 36.0114 221.191 36.9123 220.473 Q 37.8131 219.755 39.0949 219.418 Q 40.3766 219.081 41.9586 219.081 Q 43.1745 219.081 44.09 219.272 Q 45.0055 219.462 45.6354 219.682 Q 46.3678 219.945 46.9098 220.282 Q 46.8659 220.619 46.734 221.015 Q 46.6168 221.352 46.4118 221.806 Q 46.2067 222.26 45.8405 222.787 Q 45.401 222.494 44.8151 222.26 Q 44.3024 222.055 43.5773 221.886 Q 42.8522 221.718 41.9001 221.718 Q 40.86 221.718 40.1496 221.879 Q 39.4391 222.04 38.985 222.384 Q 38.5309 222.729 38.3332 223.249 Q 38.1354 223.769 38.1354 224.486 Q 38.1354 225.292 38.3405 225.827 Q 38.5456 226.361 38.9997 226.735 Q 39.4538 227.108 40.1789 227.387 Q 40.904 227.665 41.9293 227.958 Q 43.4674 228.383 44.5514 228.866 Q 45.6354 229.35 46.3166 229.994 Q 46.9977 230.639 47.3126 231.525 Q 47.6276 232.411 47.6276 233.656 Q 47.6276 235.194 47.2321 236.33 Q 46.8366 237.465 45.9723 238.227 Q 45.1081 238.988 43.7458 239.362 Q 42.3834 239.735 40.4645 239.735 Q 39.3219 239.735 38.3112 239.567 Q 37.3004 239.399 36.5534 239.193 Q 35.6598 238.944 34.9274 238.637 Z M 50.3522 231.84 Q 50.3522 229.906 50.8209 228.434 Q 51.2897 226.962 52.1906 225.966 Q 53.0915 224.97 54.4025 224.464 Q 55.7135 223.959 57.3981 223.959 Q 58.0133 223.959 58.6432 224.076 Q 59.2731 224.193 59.7858 224.325 Q 60.3717 224.486 60.9284 224.691 Q 60.8844 225.102 60.7965 225.541 Q 60.7233 225.922 60.5841 226.369 Q 60.445 226.816 60.2399 227.24 Q 59.8444 227.079 59.3903 226.933 Q 58.9948 226.816 58.4821 226.713 Q 57.9694 226.61 57.3981 226.61 Q 56.4167 226.61 55.6916 226.969 Q 54.9665 227.328 54.4831 228.009 Q 53.9997 228.691 53.7653 229.657 Q 53.5309 230.624 53.5309 231.825 Q 53.5309 234.462 54.549 235.824 Q 55.567 237.187 57.5446 237.187 Q 58.1305 237.187 58.6579 237.091 Q 59.1852 236.996 59.61 236.879 Q 60.0934 236.733 60.5182 236.557 Q 60.6647 236.879 60.7819 237.26 Q 60.8844 237.597 60.965 238.029 Q 61.0456 238.461 61.0309 238.959 Q 60.4889 239.15 59.903 239.311 Q 59.4049 239.442 58.7824 239.545 Q 58.1598 239.648 57.5446 239.648 Q 54.1022 239.648 52.2272 237.685 Q 50.3522 235.722 50.3522 231.84 Z M 63.7555 218.261 L 66.9049 218.261 L 66.9049 223.183 L 66.7585 225.424 L 66.8463 225.424 Q 66.9489 225.336 67.3371 225.094 Q 67.7253 224.853 68.3039 224.604 Q 68.8825 224.355 69.6076 224.164 Q 70.3327 223.974 71.109 223.974 Q 72.3395 223.974 73.2843 224.34 Q 74.2292 224.706 74.8737 225.387 Q 75.5182 226.068 75.8478 227.021 Q 76.1774 227.973 76.1774 229.159 L 76.1774 239.355 L 73.028 239.355 L 73.028 229.467 Q 73.028 227.87 72.3908 227.116 Q 71.7536 226.361 70.2887 226.361 Q 69.5856 226.361 68.9777 226.486 Q 68.3698 226.61 67.901 226.772 Q 67.359 226.947 66.9049 227.182 L 66.9049 239.355 L 63.7555 239.355 L 63.7555 218.261 Z M 79.4001 232.016 Q 79.4001 229.906 79.9128 228.383 Q 80.4254 226.859 81.3483 225.878 Q 82.2711 224.897 83.5529 224.435 Q 84.8346 223.974 86.3727 223.974 Q 87.7936 223.974 88.9142 224.45 Q 90.0348 224.926 90.8112 225.79 Q 91.5876 226.654 91.9977 227.856 Q 92.4079 229.057 92.4079 230.507 Q 92.4079 231.005 92.3639 231.43 Q 92.32 231.855 92.2614 232.162 Q 92.2028 232.528 92.1295 232.821 L 82.5202 232.777 Q 82.5348 234.081 82.7985 234.938 Q 83.0622 235.795 83.5822 236.293 Q 84.1022 236.791 84.8932 236.989 Q 85.6842 237.187 86.7682 237.187 Q 87.6911 237.187 88.4235 237.069 Q 89.1559 236.952 89.6686 236.791 Q 90.2545 236.615 90.7233 236.381 Q 90.943 236.894 91.0675 237.333 Q 91.192 237.773 91.2506 238.095 Q 91.3092 238.476 91.3385 238.769 Q 90.8551 239.018 90.1667 239.208 Q 89.5807 239.369 88.7311 239.508 Q 87.8815 239.648 86.7682 239.648 Q 85.0104 239.648 83.6408 239.252 Q 82.2711 238.857 81.3263 237.956 Q 80.3815 237.055 79.8908 235.597 Q 79.4001 234.14 79.4001 232.016 Z M 89.2731 230.639 L 89.2731 230.141 Q 89.2731 229.218 89.0461 228.507 Q 88.819 227.797 88.4235 227.314 Q 88.028 226.83 87.486 226.581 Q 86.944 226.332 86.3141 226.332 Q 85.3913 226.332 84.6881 226.574 Q 83.985 226.816 83.5089 227.336 Q 83.0329 227.856 82.7985 228.676 Q 82.5641 229.496 82.5641 230.639 L 89.2731 230.639 Z M 94.7077 232.133 Q 94.7077 230.038 95.2936 228.5 Q 95.8795 226.962 96.883 225.951 Q 97.8864 224.941 99.2047 224.45 Q 100.523 223.959 102.003 223.959 Q 102.559 223.959 102.999 224.01 Q 103.438 224.062 103.746 224.135 Q 104.112 224.208 104.39 224.311 L 104.39 218.275 L 107.51 218.275 L 107.51 236.938 L 108.799 238.432 L 108.799 239.355 L 105.87 239.355 L 104.859 238.197 L 104.361 238.197 Q 104.288 238.271 104.061 238.505 Q 103.834 238.739 103.416 238.988 Q 102.999 239.237 102.391 239.442 Q 101.783 239.648 100.963 239.648 Q 99.8786 239.648 98.7653 239.208 Q 97.652 238.769 96.7511 237.846 Q 95.8503 236.923 95.279 235.509 Q 94.7077 234.096 94.7077 232.133 Z M 97.9889 232.133 Q 97.9889 233.495 98.2746 234.462 Q 98.5602 235.429 99.0876 236.051 Q 99.6149 236.674 100.377 236.96 Q 101.138 237.245 102.09 237.245 Q 102.457 237.245 102.867 237.128 Q 103.277 237.011 103.614 236.85 Q 104.009 236.689 104.39 236.454 L 104.39 226.552 Q 104.2 226.435 103.826 226.317 Q 103.453 226.2 102.794 226.2 Q 100.494 226.2 99.2414 227.716 Q 97.9889 229.233 97.9889 232.133 Z M 111.143 224.384 L 114.278 224.384 L 114.278 234.169 Q 114.278 235.736 114.893 236.491 Q 115.508 237.245 116.959 237.245 Q 117.662 237.245 118.233 237.128 Q 118.804 237.011 119.229 236.85 Q 119.713 236.674 120.093 236.44 L 120.093 224.384 L 123.243 224.384 L 123.243 236.938 L 124.547 238.432 L 124.547 239.355 L 121.719 239.355 L 120.562 238.197 L 120.006 238.197 Q 119.888 238.285 119.566 238.52 Q 119.244 238.754 118.738 239.01 Q 118.233 239.267 117.574 239.457 Q 116.915 239.648 116.138 239.648 Q 114.908 239.648 113.97 239.281 Q 113.033 238.915 112.403 238.234 Q 111.773 237.553 111.458 236.593 Q 111.143 235.634 111.143 234.447 L 111.143 224.384 Z M 127.374 218.275 L 130.406 218.275 L 130.406 236.894 L 131.27 237.509 L 131.27 239.355 L 130.435 239.355 L 130.406 239.325 L 130.406 239.355 Q 128.956 239.355 128.165 238.769 Q 127.374 238.183 127.374 236.835 L 127.374 218.275 Z M 133.76 232.016 Q 133.76 229.906 134.273 228.383 Q 134.786 226.859 135.709 225.878 Q 136.632 224.897 137.913 224.435 Q 139.195 223.974 140.733 223.974 Q 142.154 223.974 143.275 224.45 Q 144.395 224.926 145.172 225.79 Q 145.948 226.654 146.358 227.856 Q 146.768 229.057 146.768 230.507 Q 146.768 231.005 146.724 231.43 Q 146.68 231.855 146.622 232.162 Q 146.563 232.528 146.49 232.821 L 136.881 232.777 Q 136.895 234.081 137.159 234.938 Q 137.423 235.795 137.943 236.293 Q 138.463 236.791 139.254 236.989 Q 140.045 237.187 141.129 237.187 Q 142.051 237.187 142.784 237.069 Q 143.516 236.952 144.029 236.791 Q 144.615 236.615 145.084 236.381 Q 145.303 236.894 145.428 237.333 Q 145.552 237.773 145.611 238.095 Q 145.67 238.476 145.699 238.769 Q 145.215 239.018 144.527 239.208 Q 143.941 239.369 143.091 239.508 Q 142.242 239.648 141.129 239.648 Q 139.371 239.648 138.001 239.252 Q 136.632 238.857 135.687 237.956 Q 134.742 237.055 134.251 235.597 Q 133.76 234.14 133.76 232.016 Z M 143.633 230.639 L 143.633 230.141 Q 143.633 229.218 143.406 228.507 Q 143.179 227.797 142.784 227.314 Q 142.388 226.83 141.846 226.581 Q 141.304 226.332 140.674 226.332 Q 139.752 226.332 139.048 226.574 Q 138.345 226.816 137.869 227.336 Q 137.393 227.856 137.159 228.676 Q 136.924 229.496 136.924 230.639 L 143.633 230.639 Z"
     id="path6" />
  <path
     fill="rgb(255, 255, 255)"
     fill-rule="evenodd"
     stroke="rgba(0, 0, 0, 0)"
     stroke-linecap="square"
     stroke-linejoin="miter"
     stroke-width="1"
     d="M 39.0716 283.098 L 50.4827 283.098 Q 50.4827 283.201 50.4974 283.318 Q 50.512 283.421 50.5193 283.545 Q 50.5267 283.67 50.5267 283.816 Q 50.5267 284.065 50.4314 284.571 Q 50.3362 285.076 50.014 285.735 Q 48.8128 285.691 47.5237 285.647 Q 46.4251 285.618 45.0701 285.581 Q 43.7151 285.545 42.3968 285.545 L 42.3968 292.034 Q 42.7923 292.034 43.3196 292.027 Q 43.847 292.019 44.4329 292.005 Q 45.0188 291.99 45.6414 291.968 Q 46.264 291.946 46.8499 291.931 Q 48.2268 291.887 49.721 291.843 Q 49.721 291.961 49.7356 292.092 Q 49.7503 292.21 49.7576 292.363 Q 49.7649 292.517 49.7649 292.678 Q 49.7649 292.81 49.699 293.235 Q 49.6331 293.66 49.3987 294.451 Q 47.846 294.451 46.469 294.436 Q 45.8831 294.436 45.2752 294.436 Q 44.6673 294.436 44.1253 294.429 Q 43.5833 294.422 43.1292 294.422 Q 42.6751 294.422 42.3968 294.422 L 42.3968 302.991 L 39.0716 302.991 L 39.0716 283.098 Z M 55.0237 285.486 Q 54.6136 285.486 54.2547 285.34 Q 53.8958 285.193 53.6248 284.944 Q 53.3538 284.695 53.1927 284.365 Q 53.0315 284.036 53.0315 283.655 Q 53.0315 283.259 53.1927 282.923 Q 53.3538 282.586 53.6248 282.337 Q 53.8958 282.088 54.2547 281.948 Q 54.6136 281.809 55.0237 281.809 Q 55.4339 281.809 55.8001 281.948 Q 56.1663 282.088 56.4373 282.337 Q 56.7083 282.586 56.8694 282.923 Q 57.0306 283.259 57.0306 283.655 Q 57.0306 284.036 56.8694 284.365 Q 56.7083 284.695 56.4373 284.944 Q 56.1663 285.193 55.8001 285.34 Q 55.4339 285.486 55.0237 285.486 Z M 53.3392 288.02 L 56.386 288.02 L 56.386 300.53 L 57.2503 301.145 L 57.2503 302.991 L 56.4153 302.991 L 56.386 302.962 L 56.386 302.991 Q 54.9358 302.991 54.1375 302.405 Q 53.3392 301.819 53.3392 300.471 L 53.3392 288.02 Z M 61.1321 290.701 L 59.9749 289.514 L 59.9749 287.859 L 62.6702 287.859 L 63.93 289.002 L 64.3548 288.914 Q 64.4573 288.826 64.8308 288.606 Q 65.2044 288.386 65.7537 288.167 Q 66.303 287.947 67.0061 287.779 Q 67.7093 287.61 68.4856 287.61 Q 69.7161 287.61 70.6756 287.976 Q 71.635 288.342 72.2942 289.024 Q 72.9534 289.705 73.2903 290.657 Q 73.6272 291.609 73.6272 292.796 L 73.6272 302.991 L 70.4778 302.991 L 70.4778 293.103 Q 70.4778 291.507 69.8113 290.752 Q 69.1448 289.998 67.6946 289.998 Q 66.9768 289.998 66.3616 290.122 Q 65.7464 290.247 65.2776 290.408 Q 64.7356 290.584 64.2669 290.818 L 64.2669 302.991 L 61.1321 302.991 L 61.1321 290.701 Z M 76.6595 298.714 Q 76.6595 297.498 77.011 296.648 Q 77.3626 295.799 78.0437 295.257 Q 78.7249 294.715 79.699 294.444 Q 80.6731 294.173 81.9329 294.099 L 85.1995 293.924 L 85.1995 292.752 Q 85.1995 291.961 85.0603 291.448 Q 84.9212 290.935 84.5989 290.628 Q 84.2766 290.32 83.742 290.196 Q 83.2073 290.071 82.4163 290.071 Q 81.6253 290.071 80.9148 290.247 Q 80.2044 290.423 79.677 290.628 Q 79.0472 290.877 78.5198 291.184 Q 78.1975 290.73 78.0071 290.313 Q 77.8167 289.895 77.7141 289.558 Q 77.5823 289.177 77.5384 288.826 Q 78.2415 288.474 79.0472 288.211 Q 79.7503 287.976 80.6658 287.786 Q 81.5813 287.595 82.5921 287.595 Q 84.262 287.595 85.3606 287.888 Q 86.4593 288.181 87.1111 288.775 Q 87.763 289.368 88.0193 290.269 Q 88.2757 291.17 88.2757 292.4 L 88.2757 300.574 L 89.5061 302.068 L 89.5061 302.991 L 86.7962 302.991 L 85.6683 301.687 L 85.1409 301.687 Q 85.0677 301.76 84.7527 302.017 Q 84.4378 302.273 83.9471 302.559 Q 83.4563 302.844 82.8338 303.064 Q 82.2112 303.284 81.5081 303.284 Q 80.4095 303.284 79.5159 302.954 Q 78.6224 302.625 77.9851 302.017 Q 77.3479 301.409 77.0037 300.567 Q 76.6595 299.724 76.6595 298.714 Z M 79.8528 298.45 Q 79.8528 299.124 80.0433 299.571 Q 80.2337 300.017 80.5779 300.281 Q 80.9222 300.545 81.4129 300.647 Q 81.9036 300.75 82.5042 300.75 Q 83.0608 300.75 83.5516 300.611 Q 84.0423 300.471 84.4085 300.296 Q 84.8333 300.105 85.1995 299.842 L 85.1995 295.901 L 82.2552 296.092 Q 81.5667 296.135 81.1053 296.326 Q 80.6438 296.516 80.3655 296.824 Q 80.0872 297.132 79.97 297.549 Q 79.8528 297.967 79.8528 298.45 Z M 92.4798 290.701 L 91.3225 289.514 L 91.3225 287.859 L 94.0179 287.859 L 95.2776 289.002 L 95.7024 288.914 Q 95.805 288.826 96.1785 288.606 Q 96.552 288.386 97.1014 288.167 Q 97.6507 287.947 98.3538 287.779 Q 99.0569 287.61 99.8333 287.61 Q 101.064 287.61 102.023 287.976 Q 102.983 288.342 103.642 289.024 Q 104.301 289.705 104.638 290.657 Q 104.975 291.609 104.975 292.796 L 104.975 302.991 L 101.825 302.991 L 101.825 293.103 Q 101.825 291.507 101.159 290.752 Q 100.492 289.998 99.0423 289.998 Q 98.3245 289.998 97.7093 290.122 Q 97.094 290.247 96.6253 290.408 Q 96.0833 290.584 95.6145 290.818 L 95.6145 302.991 L 92.4798 302.991 L 92.4798 290.701 Z M 108.227 295.476 Q 108.227 293.543 108.696 292.071 Q 109.164 290.598 110.065 289.602 Q 110.966 288.606 112.277 288.101 Q 113.588 287.595 115.273 287.595 Q 115.888 287.595 116.518 287.713 Q 117.148 287.83 117.66 287.962 Q 118.246 288.123 118.803 288.328 Q 118.759 288.738 118.671 289.177 Q 118.598 289.558 118.459 290.005 Q 118.32 290.452 118.115 290.877 Q 117.719 290.716 117.265 290.569 Q 116.869 290.452 116.357 290.349 Q 115.844 290.247 115.273 290.247 Q 114.291 290.247 113.566 290.606 Q 112.841 290.965 112.358 291.646 Q 111.874 292.327 111.64 293.294 Q 111.406 294.26 111.406 295.462 Q 111.406 298.098 112.424 299.461 Q 113.442 300.823 115.419 300.823 Q 116.005 300.823 116.533 300.728 Q 117.06 300.633 117.485 300.515 Q 117.968 300.369 118.393 300.193 Q 118.539 300.515 118.657 300.896 Q 118.759 301.233 118.84 301.665 Q 118.92 302.097 118.906 302.595 Q 118.364 302.786 117.778 302.947 Q 117.28 303.079 116.657 303.181 Q 116.034 303.284 115.419 303.284 Q 111.977 303.284 110.102 301.321 Q 108.227 299.358 108.227 295.476 Z M 120.766 295.652 Q 120.766 293.543 121.279 292.019 Q 121.791 290.496 122.714 289.514 Q 123.637 288.533 124.919 288.072 Q 126.2 287.61 127.739 287.61 Q 129.159 287.61 130.28 288.086 Q 131.401 288.562 132.177 289.426 Q 132.953 290.291 133.364 291.492 Q 133.774 292.693 133.774 294.143 Q 133.774 294.641 133.73 295.066 Q 133.686 295.491 133.627 295.799 Q 133.569 296.165 133.495 296.458 L 123.886 296.414 Q 123.901 297.717 124.164 298.574 Q 124.428 299.431 124.948 299.929 Q 125.468 300.427 126.259 300.625 Q 127.05 300.823 128.134 300.823 Q 129.057 300.823 129.789 300.706 Q 130.522 300.589 131.034 300.427 Q 131.62 300.252 132.089 300.017 Q 132.309 300.53 132.433 300.969 Q 132.558 301.409 132.617 301.731 Q 132.675 302.112 132.704 302.405 Q 132.221 302.654 131.533 302.844 Q 130.947 303.006 130.097 303.145 Q 129.247 303.284 128.134 303.284 Q 126.376 303.284 125.007 302.888 Q 123.637 302.493 122.692 301.592 Q 121.747 300.691 121.257 299.234 Q 120.766 297.776 120.766 295.652 Z M 130.639 294.275 L 130.639 293.777 Q 130.639 292.854 130.412 292.144 Q 130.185 291.433 129.789 290.95 Q 129.394 290.467 128.852 290.217 Q 128.31 289.968 127.68 289.968 Q 126.757 289.968 126.054 290.21 Q 125.351 290.452 124.875 290.972 Q 124.399 291.492 124.164 292.312 Q 123.93 293.133 123.93 294.275 L 130.639 294.275 Z M 136.176 302.317 Q 136.176 301.98 136.235 301.585 Q 136.279 301.248 136.374 300.816 Q 136.469 300.384 136.659 299.915 Q 137.304 300.164 138.007 300.354 Q 138.608 300.515 139.311 300.655 Q 140.014 300.794 140.702 300.794 Q 141.318 300.794 141.845 300.75 Q 142.372 300.706 142.761 300.508 Q 143.149 300.31 143.368 299.907 Q 143.588 299.505 143.588 298.787 Q 143.588 297.923 143.054 297.425 Q 142.519 296.926 141.2 296.677 Q 139.838 296.414 138.908 295.974 Q 137.978 295.535 137.399 294.956 Q 136.821 294.378 136.564 293.66 Q 136.308 292.942 136.308 292.122 Q 136.308 290.891 136.703 290.027 Q 137.099 289.163 137.853 288.628 Q 138.608 288.093 139.728 287.852 Q 140.849 287.61 142.299 287.61 Q 143.31 287.61 144.094 287.749 Q 144.877 287.888 145.405 288.05 Q 146.02 288.24 146.474 288.489 Q 146.43 288.811 146.313 289.192 Q 146.21 289.514 146.042 289.925 Q 145.873 290.335 145.595 290.759 Q 145.2 290.525 144.687 290.349 Q 144.247 290.188 143.632 290.064 Q 143.017 289.939 142.226 289.939 Q 141.611 289.939 141.091 289.998 Q 140.571 290.056 140.197 290.261 Q 139.824 290.467 139.618 290.884 Q 139.413 291.301 139.413 292.019 Q 139.413 292.371 139.509 292.656 Q 139.604 292.942 139.889 293.176 Q 140.175 293.411 140.695 293.609 Q 141.215 293.806 142.079 293.997 Q 143.427 294.29 144.328 294.671 Q 145.229 295.051 145.763 295.593 Q 146.298 296.135 146.525 296.861 Q 146.752 297.586 146.752 298.582 Q 146.752 299.651 146.415 300.515 Q 146.078 301.38 145.361 301.995 Q 144.643 302.61 143.515 302.947 Q 142.387 303.284 140.79 303.284 Q 139.765 303.284 138.923 303.137 Q 138.08 302.991 137.465 302.801 Q 136.747 302.595 136.176 302.317 Z"
     id="path8" />
  <path
     fill="rgb(255, 255, 255)"
     fill-rule="evenodd"
     stroke="rgba(0, 0, 0, 0)"
     stroke-linecap="square"
     stroke-linejoin="miter"
     stroke-width="1"
     d="M 39.0716 346.735 L 42.3968 346.735 L 42.3968 355.187 L 50.1604 355.187 L 50.1604 346.735 L 53.471 346.735 L 53.471 366.627 L 50.1604 366.627 L 50.1604 357.736 L 42.3968 357.736 L 42.3968 366.627 L 39.0716 366.627 L 39.0716 346.735 Z M 56.9134 359.288 Q 56.9134 357.179 57.4261 355.656 Q 57.9388 354.132 58.8616 353.151 Q 59.7845 352.169 61.0662 351.708 Q 62.3479 351.246 63.886 351.246 Q 65.3069 351.246 66.4275 351.723 Q 67.5481 352.199 68.3245 353.063 Q 69.1009 353.927 69.511 355.128 Q 69.9212 356.329 69.9212 357.78 Q 69.9212 358.278 69.8772 358.703 Q 69.8333 359.127 69.7747 359.435 Q 69.7161 359.801 69.6429 360.094 L 60.0335 360.05 Q 60.0481 361.354 60.3118 362.211 Q 60.5755 363.068 61.0955 363.566 Q 61.6155 364.064 62.4065 364.262 Q 63.1976 364.459 64.2815 364.459 Q 65.2044 364.459 65.9368 364.342 Q 66.6692 364.225 67.1819 364.064 Q 67.7679 363.888 68.2366 363.654 Q 68.4563 364.166 68.5808 364.606 Q 68.7054 365.045 68.764 365.368 Q 68.8225 365.748 68.8518 366.041 Q 68.3684 366.29 67.68 366.481 Q 67.094 366.642 66.2444 366.781 Q 65.3948 366.92 64.2815 366.92 Q 62.5237 366.92 61.1541 366.525 Q 59.7845 366.129 58.8396 365.228 Q 57.8948 364.328 57.4041 362.87 Q 56.9134 361.412 56.9134 359.288 Z M 66.7864 357.911 L 66.7864 357.413 Q 66.7864 356.491 66.5594 355.78 Q 66.3323 355.07 65.9368 354.586 Q 65.5413 354.103 64.9993 353.854 Q 64.4573 353.605 63.8274 353.605 Q 62.9046 353.605 62.2015 353.847 Q 61.4983 354.088 61.0223 354.608 Q 60.5462 355.128 60.3118 355.949 Q 60.0774 356.769 60.0774 357.911 L 66.7864 357.911 Z M 72.0013 362.35 Q 72.0013 361.134 72.3528 360.285 Q 72.7044 359.435 73.3855 358.893 Q 74.0667 358.351 75.0408 358.08 Q 76.0149 357.809 77.2747 357.736 L 80.5413 357.56 L 80.5413 356.388 Q 80.5413 355.597 80.4021 355.084 Q 80.263 354.572 79.9407 354.264 Q 79.6184 353.956 79.0838 353.832 Q 78.5491 353.707 77.7581 353.707 Q 76.9671 353.707 76.2566 353.883 Q 75.5462 354.059 75.0188 354.264 Q 74.389 354.513 73.8616 354.821 Q 73.5393 354.367 73.3489 353.949 Q 73.1585 353.532 73.0559 353.195 Q 72.9241 352.814 72.8802 352.462 Q 73.5833 352.111 74.389 351.847 Q 75.0921 351.613 76.0076 351.422 Q 76.9231 351.232 77.9339 351.232 Q 79.6038 351.232 80.7024 351.525 Q 81.8011 351.818 82.4529 352.411 Q 83.1048 353.004 83.3611 353.905 Q 83.6175 354.806 83.6175 356.036 L 83.6175 364.21 L 84.8479 365.704 L 84.8479 366.627 L 82.138 366.627 L 81.01 365.324 L 80.4827 365.324 Q 80.4095 365.397 80.0945 365.653 Q 79.7796 365.91 79.2889 366.195 Q 78.7981 366.481 78.1756 366.701 Q 77.553 366.92 76.8499 366.92 Q 75.7513 366.92 74.8577 366.591 Q 73.9641 366.261 73.3269 365.653 Q 72.6897 365.045 72.3455 364.203 Q 72.0013 363.361 72.0013 362.35 Z M 75.1946 362.086 Q 75.1946 362.76 75.385 363.207 Q 75.5755 363.654 75.9197 363.917 Q 76.264 364.181 76.7547 364.284 Q 77.2454 364.386 77.846 364.386 Q 78.4026 364.386 78.8933 364.247 Q 79.3841 364.108 79.7503 363.932 Q 80.1751 363.742 80.5413 363.478 L 80.5413 359.537 L 77.597 359.728 Q 76.9085 359.772 76.4471 359.962 Q 75.9856 360.153 75.7073 360.46 Q 75.429 360.768 75.3118 361.185 Q 75.1946 361.603 75.1946 362.086 Z M 87.4114 345.548 L 90.4436 345.548 L 90.4436 364.166 L 91.3079 364.782 L 91.3079 366.627 L 90.4729 366.627 L 90.4436 366.598 L 90.4436 366.627 Q 88.9934 366.627 88.2024 366.041 Q 87.4114 365.455 87.4114 364.108 L 87.4114 345.548 Z M 95.3362 353.927 L 93.4173 353.927 Q 93.4026 353.766 93.388 353.576 Q 93.3733 353.414 93.366 353.195 Q 93.3587 352.975 93.3587 352.711 Q 93.3587 352.448 93.3733 352.221 Q 93.388 351.994 93.4173 351.657 L 95.3362 351.657 L 95.3362 349.328 L 97.0208 347.423 L 98.3245 347.423 L 98.3245 351.657 L 102.47 351.657 Q 102.499 351.803 102.521 352.008 Q 102.543 352.213 102.543 352.404 Q 102.543 352.741 102.477 353.019 Q 102.411 353.297 102.338 353.502 Q 102.25 353.737 102.133 353.927 L 98.3245 353.927 L 98.3245 362.423 Q 98.3245 363.493 98.6834 363.976 Q 99.0423 364.459 99.8333 364.459 Q 100.17 364.459 100.544 364.379 Q 100.917 364.298 101.254 364.181 Q 101.635 364.049 102.031 363.888 Q 102.324 364.269 102.492 364.635 Q 102.66 365.001 102.734 365.294 Q 102.822 365.631 102.836 365.924 Q 102.426 366.203 101.913 366.422 Q 101.459 366.613 100.829 366.766 Q 100.2 366.92 99.3792 366.92 Q 98.2366 366.92 97.4676 366.635 Q 96.6985 366.349 96.2225 365.785 Q 95.7464 365.221 95.5413 364.379 Q 95.3362 363.536 95.3362 362.438 L 95.3362 353.927 Z M 105.546 345.534 L 108.696 345.534 L 108.696 350.455 L 108.549 352.697 L 108.637 352.697 Q 108.74 352.609 109.128 352.367 Q 109.516 352.125 110.095 351.876 Q 110.673 351.627 111.398 351.437 Q 112.123 351.246 112.9 351.246 Q 114.13 351.246 115.075 351.613 Q 116.02 351.979 116.664 352.66 Q 117.309 353.341 117.638 354.293 Q 117.968 355.245 117.968 356.432 L 117.968 366.627 L 114.819 366.627 L 114.819 356.74 Q 114.819 355.143 114.181 354.389 Q 113.544 353.634 112.079 353.634 Q 111.376 353.634 110.768 353.759 Q 110.16 353.883 109.692 354.044 Q 109.15 354.22 108.696 354.454 L 108.696 366.627 L 105.546 366.627 L 105.546 345.534 Z"
     id="path10" />
  <path
     fill="rgb(64, 66, 241)"
     stroke="rgba(0, 0, 0, 0)"
     stroke-linecap="square"
     stroke-linejoin="miter"
     stroke-width="1"
     d="M 89.2429 384.065 C 50.2755 347.244 25.8481 294.342 25.8481 235.605 C 25.8481 125.458 111.748 35.8328 218.189 34.1169 L 216.792 236.674 C 145.982 319.69 103.427 368.868 89.2429 384.065 Z"
     id="path12" />
  <path
     fill="rgb(230, 138, 0)"
     stroke="rgba(0, 0, 0, 0)"
     stroke-linecap="square"
     stroke-linejoin="miter"
     stroke-width="1"
     d="M 152.586 433.834 C 131.736 423.42 113.144 408.502 97.6966 390.195 C 110.73 376.584 148.86 333.742 212.128 261.621 L 152.586 433.834 Z"
     id="path14" />
  <path
     fill="rgb(29, 131, 29)"
     stroke="rgba(0, 0, 0, 0)"
     stroke-linecap="square"
     stroke-linejoin="miter"
     stroke-width="1"
     d="M 167.258 442.076 C 188.895 450.051 212.268 454.337 236.627 454.174 C 295.611 453.777 348.46 427.37 384.609 385.753 C 384.623 385.765 384.624 385.766 382.297 383.846 L 382.297 383.846 L 384.516 382.738 L 230.688 257.533 L 230.689 253.763 C 227.463 257.528 224.296 261.225 221.334 264.676 L 167.258 442.076 Z"
     id="path16" />
  <path
     fill="rgb(220, 44, 44)"
     stroke="rgba(0, 0, 0, 0)"
     stroke-linecap="square"
     stroke-linejoin="miter"
     stroke-width="1"
     d="M 392.76 366.48 C 424.562 330.673 443.774 283.524 443.542 231.974 C 443.04 120.601 361.101 36.6162 240.302 31.0907 C 239.226 31.0955 238.151 31.1087 237.079 31.1324 Q 236.532 238.974 236.532 238.974 L 236.532 238.974 C 340.684 323.978 393.668 367.222 392.76 366.48 Z"
     id="path18" />
  <rect
     stroke="rgba(0, 0, 0, 0)"
     x="463.87579"
     y="174.645"
     width="52.651501"
     height="23.84"
     rx="4.7491798"
     ry="4.7491798"
     id="rect20"
     style="fill:#4042f1;stroke-width:1;stroke-linecap:square;stroke-linejoin:miter" />
  <rect
     stroke="rgba(0, 0, 0, 0)"
     x="463.87579"
     y="215.778"
     width="52.651501"
     height="23.6161"
     rx="4.7583699"
     ry="4.7583699"
     id="rect22"
     style="fill:#dc2c2c;stroke-width:1;stroke-linecap:square;stroke-linejoin:miter" />
  <rect
     stroke="rgba(0, 0, 0, 0)"
     x="463.87579"
     y="258.71201"
     width="52.651501"
     height="23.1061"
     rx="4.6564598"
     ry="4.6564598"
     id="rect24"
     style="fill:#1d831d;stroke-width:1;stroke-linecap:square;stroke-linejoin:miter" />
  <rect
     stroke="rgba(0, 0, 0, 0)"
     x="463.87579"
     y="300.60501"
     width="52.651501"
     height="21.516701"
     rx="4.64046"
     ry="4.64046"
     id="rect26"
     style="fill:#e68a00;stroke-width:1;stroke-linecap:square;stroke-linejoin:miter" />
</svg>
