<!-- Generator: Gravit.io --><svg xmlns="http://www.w3.org/2000/svg" style="isolation:isolate" viewBox="72.9996 48.1128 522.152 413.774" width="522.152" height="413.774" xmlns:xlink="http://www.w3.org/1999/xlink"><path fill="rgb(57, 131, 149)" stroke="rgba(0, 0, 0, 0)" stroke-linecap="square" stroke-linejoin="miter" stroke-width="1" d="M 136.332 398.061 C 97.4031 361.24 72.9996 308.338 72.9996 249.601 C 72.9996 139.454 158.815 49.8287 265.152 48.1128 L 263.756 250.67 C 193.016 333.686 150.502 382.863 136.332 398.061 Z" /><path fill="rgb(244, 146, 0)" stroke="rgba(0, 0, 0, 0)" stroke-linecap="square" stroke-linejoin="miter" stroke-width="1" d="M 204.522 449.915 C 182.224 439.914 162.152 425.238 145.277 407.003 C 158.538 392.689 201.982 337.661 266.152 261.996 L 204.522 449.915 Z" /><path fill="rgb(30, 129, 11)" fill-opacity="0.91" stroke="rgba(0, 0, 0, 0)" stroke-linecap="square" stroke-linejoin="miter" stroke-width="1" d="M 221.781 452.828 C 238.488 458.084 256.16 461.182 274.49 461.781 C 333.444 463.707 387.291 439.401 425.051 399.24 C 425.064 399.252 425.065 399.253 422.816 397.243 L 422.816 397.243 L 425.076 396.223 L 294.539 281.14 L 275.152 264.996 C 274.71 265.472 272.143 265.906 271.467 266.577 L 221.781 452.828 Z" /><path fill="rgb(29, 131, 29)" stroke="rgba(0, 0, 0, 0)" stroke-linecap="square" stroke-linejoin="miter" stroke-width="1" d="M 272.727 297.06 C 271.97 297.942 271.221 298.815 270.486 299.672 L 268.835 305.085 L 272.727 297.06 Z" /><path fill="rgb(29, 131, 29)" stroke="rgba(0, 0, 0, 0)" stroke-linecap="square" stroke-linejoin="miter" stroke-width="1" d="M 273.84 267.844 L 273.84 266.759 C 273.628 267.007 273.416 267.254 273.207 267.498 L 273.84 267.844 L 273.84 267.844 Z" /><path fill="rgb(191, 15, 15)" fill-opacity="0.87" stroke="rgba(0, 0, 0, 0)" stroke-linecap="square" stroke-linejoin="miter" stroke-width="1" d="M 433.152 384.996 C 464.953 349.189 484.925 301.52 484.693 249.969 C 484.192 138.597 402.253 54.6121 281.454 49.0865 C 280.377 49.0914 279.303 49.1046 278.23 49.1283 Q 276.152 250.996 276.152 250.996 L 276.152 252.996 C 380.303 338 434.06 385.737 433.152 384.996 Z" /><rect fill="rgb(57, 131, 149)" stroke="rgba(0, 0, 0, 0)" stroke-linecap="square" stroke-linejoin="miter" stroke-width="1" transform="matrix(1 0 0 1 0 0)" x="542.349" y="197.16" width="52.6515" height="23.84" rx="4.74918" ry="4.74918" /><rect fill="rgb(191, 15, 15)" fill-opacity="0.79" stroke="rgba(0, 0, 0, 0)" stroke-linecap="square" stroke-linejoin="miter" stroke-width="1" transform="matrix(1 0 0 1 0 0)" x="542.5" y="238.996" width="52.6515" height="23.6161" rx="4.75837" ry="4.75837" /><rect fill="rgb(30, 129, 11)" fill-opacity="0.79" stroke="rgba(0, 0, 0, 0)" stroke-linecap="square" stroke-linejoin="miter" stroke-width="1" transform="matrix(1 0 0 1 0 0)" x="542.349" y="279.708" width="52.6515" height="23.1061" rx="4.65646" ry="4.65646" /><rect fill="rgb(244, 146, 0)" stroke="rgba(0, 0, 0, 0)" stroke-linecap="square" stroke-linejoin="miter" stroke-width="1" transform="matrix(1 0 0 1 0 0)" x="542.349" y="320.601" width="52.6515" height="21.5167" rx="4.64046" ry="4.64046" /></svg>