<!-- Generator: Gravit.io --><svg xmlns="http://www.w3.org/2000/svg" style="isolation:isolate" viewBox="93.3723 131.05 601.511 232.139" width="601.511" height="232.139" xmlns:xlink="http://www.w3.org/1999/xlink"><polygon fill="rgb(255, 153, 0)" stroke="rgba(0, 0, 0, 0)" stroke-linecap="square" stroke-linejoin="miter" stroke-width="1" points="494.719,163.228 339.329,206.087 298,131.05" /><polygon fill="rgb(255, 153, 0)" stroke="rgba(0, 0, 0, 0)" stroke-linecap="square" stroke-linejoin="miter" stroke-width="1" points="424.318,363.189 381.32,303.784 485.904,332.562" /><path fill="rgb(255, 153, 0)" stroke="rgba(0, 0, 0, 0)" stroke-linecap="square" stroke-linejoin="miter" stroke-width="1" d="M 550.687 341.814 L 550.243 250.139 L 549.799 158.465 C 549.773 152.946 553.471 150.962 558.054 154.038 L 624.74 198.8 L 691.426 243.561 C 696.009 246.637 696.039 251.677 691.495 254.809 L 625.232 300.474 L 558.97 346.139 C 554.425 349.271 550.714 347.333 550.687 341.814 Z" /><path fill="rgb(255, 64, 64)" stroke="rgba(0, 0, 0, 0)" stroke-linecap="square" stroke-linejoin="miter" stroke-width="1" d="M 548.277 349.525 L 350.298 301.929 L 152.32 254.332 C 146.954 253.042 146.941 250.896 152.292 249.543 L 347.696 200.136 L 543.101 150.728 C 548.452 149.375 552.91 152.756 553.051 158.274 L 555.398 250.07 L 557.744 341.866 C 557.885 347.383 553.643 350.815 548.277 349.525 Z" /><path fill="rgb(255, 64, 64)" stroke="rgba(0, 0, 0, 0)" stroke-linecap="square" stroke-linejoin="miter" stroke-width="1" d="M 106.239 310.353 L 158.154 283.312 L 210.069 256.271 C 214.964 253.721 214.849 249.819 209.812 247.564 L 155.977 223.452 L 102.143 199.341 C 97.1057 197.085 93.1791 199.732 93.3796 205.247 L 95.193 255.113 L 97.0063 304.979 C 97.2068 310.494 101.344 312.902 106.239 310.353 Z" /><circle fill="rgb(0, 0, 0)" stroke="rgba(0, 0, 0, 0)" stroke-width="1" transform="matrix(10 0 0 10 596 229)" cx="0" cy="0" r="1" vector-effect="non-scaling-stroke" /><polygon fill="rgb(255, 153, 0)" stroke="rgba(0, 0, 0, 0)" stroke-linecap="square" stroke-linejoin="miter" stroke-width="1" points="494.719,278.343 419,244.03 493.263,207.657" /></svg>